<?xml version="1.0" encoding="utf-8"?>
<!-- Generator: Adobe Illustrator 16.0.0, SVG Export Plug-In . SVG Version: 6.00 Build 0)  -->
<!DOCTYPE svg PUBLIC "-//W3C//DTD SVG 1.1//EN" "http://www.w3.org/Graphics/SVG/1.1/DTD/svg11.dtd">
<svg version="1.1" id="Layer_1" xmlns="http://www.w3.org/2000/svg" xmlns:xlink="http://www.w3.org/1999/xlink" x="0px" y="0px"
	 width="121.667px" height="56.068px" viewBox="0 0 121.667 56.068" enable-background="new 0 0 121.667 56.068"
	 xml:space="preserve">
<g>
	<path fill="none" stroke="#1F6568" stroke-width="2" stroke-linecap="round" stroke-linejoin="round" d="M10,42.373H2.433V4.562H10
		v15.135h15.108V4.562h7.567v37.811h-7.567V27.265H10V42.373z"/>
	<path fill="none" stroke="#1F6568" stroke-width="2" stroke-linecap="round" stroke-linejoin="round" d="M65.793,28.003
		c0,2.109-0.378,4.074-1.134,5.893c-0.756,1.819-1.784,3.393-3.085,4.72c-1.301,1.328-2.826,2.373-4.575,3.138
		c-1.75,0.765-3.625,1.147-5.629,1.147c-1.987,0-3.854-0.382-5.603-1.147c-1.75-0.765-3.279-1.81-4.588-3.138
		c-1.31-1.327-2.343-2.9-3.098-4.72c-0.756-1.819-1.134-3.784-1.134-5.893c0-2.145,0.378-4.13,1.134-5.959
		c0.755-1.828,1.789-3.405,3.098-4.733c1.309-1.327,2.838-2.369,4.588-3.125c1.749-0.755,3.616-1.134,5.603-1.134
		c2.004,0,3.88,0.356,5.629,1.068c1.749,0.712,3.273,1.723,4.575,3.032c1.301,1.31,2.329,2.883,3.085,4.72
		C65.415,23.709,65.793,25.753,65.793,28.003z M58.542,28.003c0-1.16-0.189-2.21-0.567-3.151c-0.378-0.94-0.893-1.749-1.542-2.426
		c-0.65-0.676-1.411-1.195-2.281-1.556c-0.87-0.36-1.797-0.541-2.782-0.541c-0.985,0-1.912,0.181-2.782,0.541
		c-0.87,0.36-1.626,0.879-2.268,1.556c-0.642,0.677-1.147,1.486-1.516,2.426c-0.369,0.94-0.554,1.991-0.554,3.151
		c0,1.09,0.185,2.101,0.554,3.032c0.369,0.932,0.874,1.74,1.516,2.426c0.642,0.686,1.397,1.226,2.268,1.622s1.797,0.593,2.782,0.593
		c0.984,0,1.912-0.185,2.782-0.554s1.63-0.887,2.281-1.556c0.65-0.668,1.164-1.477,1.542-2.426
		C58.354,30.191,58.542,29.146,58.542,28.003z"/>
	<path fill="none" stroke="#1F6568" stroke-width="2" stroke-linecap="round" stroke-linejoin="round" d="M77.026,42.373h-7.251
		V2.901h7.251V42.373z"/>
	<path fill="none" stroke="#1F6568" stroke-width="2" stroke-linecap="round" stroke-linejoin="round" d="M89.761,42.373H82.51
		V2.901h7.251V42.373z"/>
	<path fill="none" stroke="#1F6568" stroke-width="2" stroke-linecap="round" stroke-linejoin="round" d="M102.048,53.131V45.88
		l4.008,0.053c0.703,0,1.38-0.115,2.03-0.343c0.65-0.229,1.252-0.545,1.806-0.949c0.554-0.405,1.042-0.883,1.463-1.437
		s0.765-1.156,1.028-1.806c-0.791,0.334-1.595,0.668-2.413,1.002s-1.639,0.501-2.465,0.501c-1.74,0-3.375-0.308-4.904-0.923
		s-2.87-1.49-4.021-2.624c-1.151-1.134-2.057-2.514-2.716-4.14c-0.659-1.625-0.989-3.45-0.989-5.471V14.134h7.172v15.609
		c0,1.002,0.145,1.876,0.435,2.624c0.29,0.748,0.681,1.371,1.173,1.872c0.492,0.501,1.068,0.875,1.727,1.121
		c0.659,0.247,1.367,0.369,2.123,0.369c0.738,0,1.437-0.171,2.096-0.514s1.235-0.795,1.727-1.358c0.492-0.562,0.879-1.2,1.16-1.912
		c0.281-0.712,0.422-1.446,0.422-2.202V14.134h7.251v24.68c-0.018,1.987-0.405,3.85-1.16,5.59c-0.756,1.74-1.789,3.26-3.098,4.562
		c-1.31,1.301-2.834,2.329-4.575,3.085c-1.74,0.755-3.604,1.134-5.59,1.134L102.048,53.131z"/>
</g>
</svg>
