<?xml version="1.0" encoding="utf-8"?>
<!-- Generator: Adobe Illustrator 16.0.0, SVG Export Plug-In . SVG Version: 6.00 Build 0)  -->
<!DOCTYPE svg PUBLIC "-//W3C//DTD SVG 1.1//EN" "http://www.w3.org/Graphics/SVG/1.1/DTD/svg11.dtd">
<svg version="1.1" id="Layer_1" xmlns="http://www.w3.org/2000/svg" xmlns:xlink="http://www.w3.org/1999/xlink" x="0px" y="0px"
	 width="239.5px" height="163px" viewBox="-32.674 -43.304 239.5 163" enable-background="new -32.674 -43.304 239.5 163"
	 xml:space="preserve">
<path fill="#231F20" stroke="#231F20" stroke-linejoin="bevel" d="M30.283-8.796l-6.532-15.457c-0.272-0.521-0.635-0.928-1.09-1.22
	c-0.456-0.294-1.093-0.547-1.912-0.761c-0.158-0.049-0.268-0.158-0.331-0.33c-0.064-0.172-0.084-0.37-0.061-0.598
	c0.007-0.064,0.014-0.138,0.022-0.22c0.009-0.081,0.032-0.152,0.07-0.214c0.009-0.098,0.036-0.194,0.078-0.289
	c0.698,0.136,1.588,0.284,2.672,0.443c1.084,0.16,2.136,0.291,3.162,0.395c0.384,0.04,0.832,0.077,1.347,0.112
	c0.512,0.037,1.044,0.073,1.589,0.111c0.545,0.041,1.068,0.067,1.567,0.085c0.5,0.019,0.928,0.029,1.283,0.031
	c-0.011,0.13-0.008,0.247,0.014,0.347c-0.01,0.099-0.01,0.18,0,0.246c0.008,0.068,0.009,0.134,0.003,0.197
	c-0.02,0.197-0.078,0.371-0.174,0.525c-0.098,0.157-0.226,0.24-0.39,0.257c-0.943,0.035-1.607,0.125-1.992,0.267
	c-0.387,0.141-0.596,0.375-0.63,0.7c-0.024,0.261,0.056,0.58,0.243,0.963l4.845,11.536l6.649-9.582
	c0.378-0.553,0.585-0.992,0.618-1.319c0.042-0.421-0.14-0.769-0.55-1.04c-0.409-0.272-1.071-0.537-1.981-0.794
	c-0.349-0.067-0.499-0.363-0.444-0.883c0.017-0.162,0.048-0.308,0.093-0.436c0.01-0.096,0.038-0.21,0.083-0.335
	c0.697,0.136,1.516,0.276,2.456,0.419c0.938,0.147,1.81,0.259,2.61,0.341c0.736,0.075,1.515,0.128,2.337,0.163
	c0.819,0.033,1.634,0.224,2.44,0.24c-0.013,0.13-0.009,0.246,0.014,0.345c-0.011,0.101-0.011,0.181,0,0.248
	c0.009,0.067,0.011,0.133,0.005,0.199c-0.047,0.456-0.251,0.714-0.614,0.776c-1.137,0.049-1.95,0.007-2.438,0.203
	c-0.49,0.197-0.923,0.574-1.303,1.126l-9.201,13.22l-1.11,10.934c-0.071,0.716,0.143,1.24,0.643,1.568
	c0.499,0.33,1.416,0.455,2.645,0.776c0.344,0.102,0.495,0.38,0.449,0.833c-0.007,0.066-0.024,0.147-0.05,0.243
	c-0.026,0.095-0.042,0.176-0.048,0.242c-0.044,0.126-0.07,0.223-0.079,0.288c-0.765-0.11-1.566-0.018-2.298-0.123
	c-0.637-0.099-1.314-0.201-2.032-0.305c-0.715-0.105-1.347-0.187-1.891-0.241c-0.545-0.056-0.705-0.074-1.413-0.114
	c-0.709-0.039-1.646-0.205-2.29-0.243c-0.74-0.044-1.699-0.272-2.438-0.314c-0.026-0.068-0.031-0.168-0.018-0.297
	c-0.026-0.07-0.033-0.152-0.024-0.25c0.01-0.097,0.02-0.178,0.023-0.244c0.047-0.456,0.235-0.699,0.56-0.732
	c1.274-0.134,2.215,0.001,2.783-0.188c0.569-0.187,0.891-0.639,0.963-1.355L30.283-8.796z"/>
<path fill="#231F20" stroke="#231F20" d="M59.556-4.741c-0.288-1.962-0.252-3.856,0.108-5.68c0.358-1.824,0.972-3.468,1.837-4.932
	c0.864-1.464,1.941-2.681,3.229-3.655c1.289-0.972,2.707-1.573,4.255-1.799c2.138-0.315,4.064-0.196,5.776,0.352
	c1.712,0.547,3.188,1.406,4.426,2.575c1.239,1.168,2.243,2.582,3.015,4.241c0.77,1.659,1.295,3.441,1.574,5.346
	c0.33,2.246,0.304,4.305-0.073,6.176c-0.379,1.872-1.035,3.506-1.973,4.907c-0.938,1.401-2.113,2.539-3.529,3.415
	c-1.416,0.876-2.984,1.44-4.704,1.694c-1.746,0.255-3.394,0.148-4.943-0.322c-1.55-0.471-2.939-1.261-4.171-2.374
	c-1.229-1.11-2.261-2.504-3.099-4.186C60.449-0.66,59.873-2.578,59.556-4.741z M72.836,6.555c1.238-0.046,2.361-0.362,3.368-0.948
	c1.007-0.586,1.863-1.377,2.564-2.377c0.702-0.997,1.23-2.173,1.591-3.523c0.357-1.351,0.507-2.815,0.449-4.395
	c-0.084-2.186-0.356-4.203-0.823-6.054c-0.466-1.852-1.127-3.454-1.982-4.803c-0.857-1.351-1.913-2.397-3.168-3.14
	c-1.255-0.745-2.7-1.084-4.334-1.023c-1.083,0.04-2.107,0.315-3.078,0.823c-0.972,0.506-1.815,1.223-2.534,2.146
	c-0.716,0.924-1.275,2.047-1.674,3.368c-0.399,1.322-0.566,2.834-0.503,4.534c0.084,2.246,0.374,4.323,0.869,6.236
	c0.495,1.911,1.17,3.557,2.028,4.937c0.857,1.382,1.894,2.445,3.108,3.189C69.933,6.268,71.306,6.612,72.836,6.555z"/>
<path fill="#231F20" stroke="#231F20" stroke-miterlimit="10" d="M121.122,1.583c0.005,1.607-0.146,3.068-0.45,4.38
	c-0.303,1.315-0.812,2.451-1.529,3.413c-0.715,0.96-1.664,1.704-2.84,2.228c-1.178,0.524-2.649,0.788-4.418,0.794
	c-2.025,0.003-3.664-0.297-4.914-0.9c-1.252-0.604-2.211-1.397-2.886-2.386c-0.674-0.984-1.125-2.119-1.352-3.403
	c-0.228-1.283-0.343-2.587-0.345-3.915l-0.032-14.39c-0.001-0.564-0.166-0.974-0.496-1.227c-0.334-0.252-0.956-0.449-1.876-0.589
	c-0.236-0.025-0.355-0.266-0.354-0.718c-0.002-0.168,0.021-0.395,0.07-0.677c0.705,0.055,1.43,0.103,2.172,0.143
	c0.743,0.041,1.455,0.061,2.14,0.059c0.611-0.001,1.329-0.023,2.156-0.069c0.824-0.043,1.589-0.094,2.297-0.152
	c0.048,0.282,0.071,0.507,0.072,0.677c0.001,0.452-0.116,0.693-0.353,0.721c-0.896,0.143-1.535,0.341-1.925,0.596
	c-0.389,0.256-0.583,0.667-0.582,1.23l0.031,13.46c0.008,2.934,0.502,5.182,1.482,6.747c0.981,1.563,2.64,2.342,4.972,2.337
	c1.319-0.003,2.438-0.182,3.357-0.537c0.918-0.355,1.67-0.899,2.259-1.635c0.586-0.735,1.008-1.687,1.264-2.859
	c0.258-1.171,0.385-2.576,0.381-4.212l-0.029-11.332c-0.003-0.565-0.18-0.974-0.533-1.228c-0.355-0.252-0.99-0.448-1.911-0.588
	c-0.26-0.026-0.389-0.267-0.389-0.719c-0.003-0.169,0.021-0.395,0.069-0.677c0.684,0.055,1.347,0.104,1.998,0.143
	c0.646,0.042,1.206,0.063,1.678,0.061c0.565-0.002,1.137-0.023,1.714-0.068c0.576-0.043,1.146-0.094,1.713-0.151
	c0.049,0.282,0.072,0.507,0.073,0.676c0.001,0.142-0.036,0.291-0.104,0.445c-0.069,0.156-0.166,0.248-0.282,0.276
	c-0.872,0.115-1.48,0.308-1.819,0.576c-0.344,0.269-0.513,0.686-0.512,1.249L121.122,1.583z"/>
<path fill="#231F20" stroke="#231F20" d="M148.213,4.122l-2.86-0.064l-0.189,8.401c-0.015,0.561,0.242,0.949,0.768,1.164
	c0.522,0.216,1.325,0.4,2.404,0.552c0.309,0.058,0.458,0.275,0.45,0.659c-0.004,0.178-0.035,0.394-0.093,0.647
	c-0.691-0.068-1.539-0.131-2.531-0.191c-0.991-0.06-1.962-0.101-2.918-0.123c-0.669-0.015-1.443-0.014-2.319,0.005
	c-0.879,0.018-1.704,0.043-2.479,0.078c-0.046-0.255-0.066-0.46-0.063-0.612c0.008-0.357,0.152-0.558,0.438-0.602
	c0.984-0.131,1.679-0.3,2.084-0.509c0.402-0.206,0.611-0.563,0.621-1.074l0.438-19.438c0.009-0.484-0.171-0.85-0.537-1.1
	c-0.366-0.251-1.092-0.451-2.173-0.604c-0.256-0.03-0.379-0.25-0.371-0.659c0.003-0.152,0.034-0.355,0.092-0.608
	c0.771,0.068,1.568,0.13,2.393,0.187c0.826,0.057,1.611,0.094,2.36,0.111l5.22,0.118c2.785,0.062,4.873,0.714,6.263,1.955
	c1.392,1.241,2.062,2.893,2.015,4.955c-0.012,0.56-0.12,1.144-0.329,1.75c-0.204,0.606-0.517,1.199-0.929,1.776
	c-0.413,0.577-0.938,1.106-1.584,1.587c-0.643,0.482-1.393,0.867-2.25,1.153l6.259,9.006c0.476,0.671,1.006,1.144,1.594,1.411
	c0.586,0.268,1.137,0.471,1.649,0.61c0.232,0.057,0.346,0.236,0.335,0.542c-0.002,0.203-0.034,0.431-0.091,0.685
	c-0.593-0.063-1.312-0.125-2.164-0.182c-0.848-0.057-1.634-0.094-2.356-0.11c-0.542-0.013-1.084-0.254-1.628-0.725
	c-0.546-0.472-1.053-1.068-1.527-1.792L148.213,4.122z M147.83,3.053c2.066,0.046,3.668-0.328,4.81-1.125
	c1.139-0.794,1.732-2.222,1.778-4.281c0.019-0.861-0.081-1.657-0.302-2.386c-0.219-0.729-0.581-1.363-1.088-1.902
	c-0.503-0.541-1.171-0.973-2.006-1.299c-0.835-0.324-1.856-0.5-3.063-0.528l-2.214-0.05l-0.259,11.517L147.83,3.053z"/>
<path fill="#231F20" stroke="#231F20" stroke-linejoin="round" d="M50.369,36.834c1.06,0.154,2.119,0.413,3.173,0.779
	c1.057,0.366,2.01,0.87,2.861,1.51c0.851,0.64,1.532,1.433,2.043,2.376c0.511,0.944,0.754,2.054,0.728,3.331
	c-0.031,1.441-0.332,2.729-0.904,3.865c-0.573,1.134-1.374,2.081-2.403,2.846c-1.03,0.764-2.264,1.345-3.702,1.74
	c-1.437,0.397-3.02,0.576-4.747,0.54l-7.873-0.167c-0.564-0.011-1.204-0.009-1.918,0.01c-0.716,0.019-1.39,0.037-2.021,0.058
	c-0.731,0.015-1.479,0.033-2.244,0.049c-0.032-0.068-0.045-0.165-0.043-0.295c-0.033-0.068-0.047-0.149-0.045-0.248
	c0.002-0.098,0.004-0.18,0.005-0.246c0.01-0.458,0.197-0.714,0.565-0.774c1.301-0.234,2.202-0.468,2.707-0.703
	c0.503-0.237,0.761-0.679,0.774-1.336l0.527-24.997c0.006-0.326-0.045-0.598-0.158-0.814c-0.111-0.215-0.298-0.398-0.562-0.551
	c-0.261-0.153-0.505-0.291-0.935-0.415c-0.429-0.124-0.818-0.042-1.479-0.186c-0.365-0.073-0.541-0.388-0.528-0.944
	c0.003-0.165-0.013-0.201,0.022-0.296c0.001-0.098,0.017-0.194,0.055-0.292c0.994,0.087,1.798,0.009,2.943,0.082
	s2.16-0.039,2.958-0.022l6.127,0.127c1.861,0.039,3.443,0.279,4.747,0.715c1.301,0.438,2.362,1.025,3.177,1.763
	c0.815,0.737,1.404,1.577,1.768,2.518c0.361,0.941,0.532,1.919,0.51,2.934c-0.015,0.755-0.179,1.488-0.494,2.201
	c-0.314,0.715-0.737,1.377-1.264,1.988c-0.529,0.611-1.162,1.154-1.903,1.63c-0.743,0.476-1.563,0.835-2.466,1.078L50.369,36.834z
	 M43.226,35.925c3.565,0.074,6.141-0.407,7.723-1.445c1.582-1.038,2.399-2.714,2.448-5.031c0.044-2.105-0.703-3.685-2.241-4.737
	c-1.54-1.051-4.093-1.614-7.659-1.69l-0.912-0.02l-0.271,12.903L43.226,35.925z M42.014,50.155c-0.008,0.388,0.11,0.71,0.356,0.961
	c0.244,0.252,0.553,0.455,0.926,0.604c0.373,0.147,0.772,0.252,1.2,0.314c0.429,0.062,0.839,0.097,1.234,0.105
	c1.358,0.029,2.596-0.051,3.71-0.238c1.111-0.188,2.067-0.54,2.867-1.054c0.797-0.512,1.42-1.214,1.869-2.105
	s0.686-2.024,0.716-3.403c0.054-2.542-0.791-4.485-2.536-5.828c-1.741-1.343-4.153-2.048-7.228-2.114l-2.845-0.058L42.014,50.155z"
	/>
<path fill="#231F20" stroke="#231F20" d="M81.788,27.897L81.57,38.219l6.091,0.129c0.522,0.011,0.898-0.243,1.131-0.763
	c0.232-0.519,0.421-1.154,0.568-1.904c0.085-0.348,0.322-0.518,0.712-0.51c0.079,0.002,0.184,0.018,0.312,0.047
	c0.131,0.029,0.234,0.06,0.312,0.087c-0.067,0.591-0.126,1.262-0.18,2.014c-0.054,0.753-0.089,1.41-0.101,1.975
	c-0.01,0.457-0.01,1.016,0.003,1.674c0.014,0.66,0.051,1.408,0.109,2.242c-0.21,0.049-0.405,0.072-0.586,0.069
	c-0.418-0.01-0.66-0.189-0.732-0.541c-0.114-0.755-0.277-1.397-0.485-1.926c-0.21-0.529-0.576-0.799-1.098-0.811l-6.091-0.127
	l-0.2,9.516c-0.012,0.565,0.331,0.949,1.031,1.151c0.699,0.203,1.855,0.321,3.469,0.354l2.149,0.046
	c0.754,0.016,1.414-0.083,1.979-0.301c0.564-0.215,1.065-0.515,1.502-0.897c0.439-0.379,0.833-0.836,1.183-1.365
	c0.35-0.532,0.688-1.115,1.014-1.754c0.082-0.187,0.279-0.275,0.592-0.269c0.13,0.001,0.265,0.044,0.407,0.128
	c0.142,0.084,0.277,0.168,0.404,0.25c-0.245,0.506-0.459,1.113-0.643,1.822c-0.185,0.709-0.363,1.387-0.531,2.027
	c-0.17,0.643-0.345,1.188-0.522,1.642c-0.181,0.454-0.4,0.679-0.659,0.672c-0.208-0.003-0.509-0.024-0.897-0.06
	c-0.391-0.034-0.814-0.063-1.268-0.084c-0.457-0.024-0.918-0.054-1.386-0.092c-0.468-0.037-0.871-0.06-1.209-0.065l-8.553-0.182
	c-0.755-0.014-1.562-0.011-2.423,0.011c-0.859,0.022-1.681,0.05-2.463,0.09c-0.046-0.27-0.067-0.485-0.064-0.647
	c0.008-0.376,0.143-0.588,0.404-0.637c0.993-0.167,1.707-0.353,2.142-0.559c0.434-0.208,0.656-0.578,0.668-1.117l0.433-20.524
	c0.011-0.538-0.171-0.912-0.543-1.122c-0.375-0.209-1.105-0.433-2.193-0.671c-0.26-0.059-0.385-0.291-0.376-0.694
	c0.002-0.134,0.011-0.249,0.027-0.343c0.015-0.093,0.036-0.194,0.065-0.3c1.118,0.104,2.054,0.177,2.808,0.22
	c0.754,0.043,1.431,0.071,2.03,0.083l7.694,0.161c1.171,0.025,2.188,0.006,3.048-0.056c0.86-0.062,1.436-0.09,1.722-0.085
	c0.337,0.007,0.562,0.234,0.668,0.679c0.11,0.446,0.194,0.979,0.261,1.6c0.064,0.62,0.142,1.28,0.23,1.981
	c0.089,0.702,0.273,1.296,0.549,1.788c-0.211,0.156-0.448,0.231-0.708,0.226c-0.339-0.007-0.558-0.133-0.656-0.376
	c-0.299-0.707-0.585-1.311-0.86-1.813c-0.276-0.504-0.6-0.921-0.969-1.251c-0.373-0.33-0.823-0.582-1.353-0.755
	c-0.53-0.172-1.188-0.268-1.967-0.284L81.788,27.897z"/>
<path fill="#231F20" stroke="#231F20" d="M128.019,32.96c-0.248,0.049-0.434,0.073-0.557,0.071c-0.322-0.007-0.555-0.08-0.7-0.221
	c-0.145-0.142-0.253-0.296-0.323-0.462c-0.611-1.585-1.353-2.744-2.228-3.48c-0.875-0.734-2.078-1.118-3.611-1.15
	c-0.594-0.012-1.156,0.065-1.692,0.233c-0.536,0.168-1.004,0.42-1.407,0.756c-0.401,0.336-0.727,0.75-0.971,1.242
	c-0.247,0.49-0.375,1.039-0.387,1.646c-0.028,1.296,0.438,2.367,1.396,3.214c0.958,0.847,2.381,1.718,4.267,2.613
	c2.351,1.097,4.074,2.298,5.172,3.603c1.099,1.305,1.628,2.896,1.589,4.769c-0.024,1.13-0.2,2.181-0.531,3.151
	c-0.33,0.973-0.83,1.818-1.5,2.533c-0.671,0.717-1.528,1.271-2.576,1.661c-1.045,0.394-2.299,0.572-3.759,0.543
	c-1.531-0.034-2.917-0.242-4.158-0.627c-1.241-0.383-2.288-0.874-3.14-1.471c-0.049-1.159-0.14-2.278-0.263-3.355
	c-0.126-1.078-0.277-2.157-0.451-3.235c0.172-0.08,0.384-0.116,0.631-0.11c0.298,0.006,0.524,0.087,0.683,0.242
	c0.156,0.154,0.293,0.398,0.41,0.731c0.576,1.998,1.344,3.476,2.3,4.433c0.956,0.956,2.312,1.454,4.068,1.49
	c0.789,0.018,1.485-0.092,2.083-0.328c0.599-0.233,1.101-0.568,1.505-1.002c0.405-0.432,0.711-0.921,0.921-1.47
	c0.209-0.546,0.32-1.137,0.335-1.77c0.029-1.433-0.386-2.573-1.245-3.418c-0.861-0.846-2.101-1.616-3.717-2.312
	c-1.054-0.462-2.009-0.945-2.862-1.446c-0.856-0.5-1.586-1.073-2.19-1.72c-0.604-0.646-1.063-1.394-1.381-2.242
	c-0.315-0.847-0.46-1.85-0.438-3.007c0.022-1.02,0.21-1.975,0.562-2.863c0.353-0.888,0.852-1.657,1.494-2.306
	c0.646-0.648,1.416-1.155,2.315-1.522c0.896-0.367,1.902-0.538,3.015-0.515c1.161,0.024,2.271,0.171,3.329,0.442
	c1.057,0.271,2.248,0.709,3.57,1.316c0.03,0.828,0.081,1.718,0.147,2.671C127.791,31.239,127.889,32.13,128.019,32.96z"/>
<path fill="#231F20" stroke="#231F20" d="M159.737,28.618l-0.452,21.446c-0.012,0.615,0.212,1.056,0.673,1.319
	c0.462,0.265,1.244,0.476,2.345,0.631c0.271,0.006,0.4,0.227,0.392,0.652c-0.005,0.188-0.032,0.416-0.087,0.682
	c-0.784-0.072-1.613-0.134-2.483-0.194c-0.872-0.059-1.749-0.096-2.633-0.114c-0.861-0.019-1.738-0.018-2.636,0.004
	c-0.897,0.023-1.738,0.05-2.527,0.088c-0.044-0.269-0.063-0.496-0.06-0.685c0.01-0.373,0.136-0.585,0.384-0.636
	c1.107-0.137,1.91-0.321,2.405-0.551c0.498-0.229,0.752-0.654,0.765-1.27l0.45-21.445l-3.793-0.08
	c-0.737-0.016-1.358,0.053-1.865,0.202c-0.508,0.15-0.947,0.382-1.324,0.695c-0.375,0.314-0.703,0.722-0.983,1.225
	c-0.28,0.502-0.577,1.086-0.885,1.75c-0.053,0.133-0.134,0.225-0.246,0.275c-0.11,0.051-0.215,0.075-0.314,0.074
	c-0.27-0.006-0.502-0.091-0.694-0.255c0.266-0.959,0.468-1.812,0.606-2.559c0.138-0.747,0.262-1.367,0.37-1.861
	c0.11-0.493,0.221-0.872,0.339-1.137c0.115-0.265,0.296-0.396,0.541-0.391c0.173,0.004,0.418,0.023,0.736,0.056
	c0.318,0.034,0.655,0.067,1.013,0.101c0.354,0.035,0.717,0.07,1.084,0.104c0.368,0.034,0.712,0.055,1.031,0.062l12.305,0.259
	c0.295,0.006,0.626,0,0.995-0.02c0.37-0.019,0.737-0.038,1.106-0.057c0.37-0.019,0.707-0.038,1.015-0.059
	c0.31-0.019,0.559-0.028,0.758-0.024c0.245,0.005,0.42,0.149,0.525,0.433c0.104,0.284,0.2,0.681,0.287,1.191
	c0.088,0.511,0.178,1.143,0.273,1.895c0.096,0.752,0.268,1.586,0.52,2.502c-0.127,0.051-0.242,0.102-0.354,0.152
	c-0.111,0.052-0.241,0.076-0.388,0.073c-0.1-0.002-0.208-0.031-0.33-0.088c-0.122-0.055-0.206-0.15-0.252-0.286
	c-0.257-0.674-0.515-1.269-0.774-1.784c-0.26-0.514-0.562-0.937-0.911-1.265c-0.351-0.328-0.774-0.579-1.276-0.749
	c-0.498-0.171-1.118-0.266-1.854-0.281L159.737,28.618z"/>
<path fill="#231F20" stroke="#231F20" d="M58.634,85.992l0.377,11.241c0.028,0.841,0.457,1.421,1.281,1.74
	c0.825,0.32,2.057,0.562,3.692,0.727c0.447,0.062,0.678,0.362,0.697,0.911c0.009,0.256-0.017,0.568-0.079,0.936
	c-1.076-0.037-2.3-0.061-3.67-0.068c-1.371-0.009-2.853,0.012-4.444,0.066c-0.963,0.032-2.054,0.098-3.271,0.192
	c-1.221,0.095-2.365,0.197-3.435,0.308c-0.086-0.364-0.135-0.654-0.141-0.875c-0.018-0.512,0.157-0.81,0.526-0.895
	c1.47-0.342,2.45-0.659,2.939-0.951c0.491-0.289,0.724-0.802,0.7-1.533l-0.937-27.908c-0.025-0.732-0.33-1.251-0.913-1.563
	c-0.586-0.31-1.621-0.529-3.107-0.662c-0.373-0.06-0.569-0.384-0.588-0.968c-0.008-0.257,0.019-0.531,0.084-0.827
	c1.038,0.039,2.142,0.064,3.308,0.081c1.167,0.014,2.271,0.005,3.307-0.029l7.827-0.262c3.996-0.133,7.025,0.696,9.086,2.496
	c2.061,1.797,3.143,4.175,3.242,7.135c0.04,1.172-0.19,2.367-0.687,3.592c-0.495,1.226-1.237,2.339-2.222,3.341
	c-0.986,1.003-2.217,1.84-3.693,2.513c-1.479,0.672-3.161,1.038-5.049,1.102L58.634,85.992z M61.589,84.141
	c2.813-0.096,4.965-0.771,6.451-2.031c1.486-1.258,2.182-3.332,2.086-6.219c-0.041-1.206-0.221-2.334-0.537-3.377
	c-0.315-1.043-0.829-1.952-1.541-2.73c-0.71-0.774-1.636-1.378-2.776-1.808c-1.141-0.431-2.556-0.619-4.244-0.561l-3.197,0.106
	l0.562,16.725L61.589,84.141z"/>
<path fill="#231F20" stroke="#231F20" d="M96.195,84.716l-3.163,0.105l0.336,9.993c0.022,0.666,0.33,1.109,0.922,1.332
	c0.591,0.224,1.488,0.391,2.691,0.501c0.341,0.051,0.522,0.301,0.538,0.756c0.006,0.211-0.015,0.47-0.061,0.774
	c-0.771-0.036-1.707-0.057-2.804-0.065c-1.1-0.009-2.175,0.004-3.229,0.04c-0.741,0.024-1.594,0.078-2.56,0.155
	c-0.969,0.077-1.877,0.159-2.73,0.25c-0.068-0.301-0.104-0.543-0.11-0.724c-0.014-0.424,0.134-0.671,0.446-0.742
	c1.075-0.218,1.828-0.464,2.262-0.734c0.434-0.272,0.641-0.712,0.621-1.318l-0.777-23.12c-0.02-0.574-0.239-1-0.663-1.273
	c-0.423-0.274-1.234-0.466-2.436-0.577c-0.286-0.021-0.438-0.272-0.453-0.759c-0.007-0.182,0.014-0.424,0.062-0.729
	c0.856,0.033,1.739,0.055,2.653,0.072c0.913,0.013,1.783,0.007,2.609-0.021l5.767-0.193c3.076-0.104,5.42,0.539,7.037,1.925
	c1.613,1.386,2.463,3.304,2.545,5.758c0.022,0.665-0.061,1.365-0.248,2.099c-0.191,0.735-0.496,1.458-0.912,2.169
	c-0.42,0.71-0.968,1.374-1.645,1.988c-0.679,0.613-1.482,1.117-2.408,1.513l7.487,10.299c0.567,0.769,1.184,1.293,1.85,1.574
	c0.664,0.281,1.284,0.489,1.86,0.62c0.259,0.054,0.392,0.259,0.405,0.623c0.008,0.243-0.011,0.516-0.059,0.821
	c-0.657-0.04-1.456-0.066-2.397-0.08c-0.94-0.014-1.812-0.007-2.608,0.02c-0.598,0.021-1.212-0.231-1.841-0.757
	c-0.634-0.524-1.233-1.201-1.802-2.031L96.195,84.716z M95.66,82.867c2.366-0.079,4.179-0.614,5.432-1.606
	c1.256-0.991,1.842-2.675,1.761-5.056c-0.032-0.995-0.197-1.907-0.496-2.734c-0.301-0.828-0.755-1.536-1.367-2.126
	c-0.613-0.593-1.408-1.048-2.385-1.37c-0.975-0.32-2.159-0.458-3.544-0.41l-2.537,0.084l0.445,13.31L95.66,82.867z"/>
<path fill="#231F20" stroke="#231F20" d="M133.462,70.483l0.379,10.395l7.012-0.257c0.6-0.023,1.017-0.302,1.254-0.839
	c0.233-0.539,0.412-1.188,0.534-1.951c0.076-0.354,0.339-0.542,0.79-0.558c0.09-0.004,0.209,0.005,0.359,0.028
	c0.15,0.021,0.271,0.043,0.362,0.067c-0.038,0.598-0.065,1.277-0.083,2.035c-0.017,0.761-0.013,1.424,0.008,1.992
	c0.016,0.461,0.051,1.022,0.106,1.683c0.053,0.663,0.14,1.413,0.262,2.248c-0.238,0.063-0.461,0.099-0.671,0.107
	c-0.48,0.016-0.771-0.147-0.874-0.497c-0.177-0.752-0.404-1.389-0.676-1.907c-0.274-0.52-0.712-0.767-1.311-0.744l-7.01,0.257
	l0.352,9.583c0.021,0.568,0.438,0.934,1.254,1.093c0.816,0.16,2.153,0.205,4.01,0.138l2.473-0.093
	c0.868-0.03,1.622-0.173,2.256-0.427c0.637-0.254,1.194-0.586,1.674-0.998c0.48-0.409,0.905-0.893,1.272-1.447
	c0.371-0.558,0.724-1.165,1.062-1.829c0.079-0.192,0.303-0.296,0.663-0.309c0.149-0.007,0.308,0.028,0.477,0.104
	c0.166,0.076,0.326,0.151,0.48,0.227c-0.252,0.525-0.461,1.148-0.629,1.873c-0.17,0.726-0.332,1.416-0.487,2.071
	c-0.156,0.656-0.322,1.219-0.5,1.686c-0.179,0.469-0.417,0.707-0.717,0.719c-0.24,0.008-0.586,0.006-1.034-0.004
	c-0.45-0.012-0.94-0.013-1.464-0.007c-0.523,0.005-1.056,0.004-1.598-0.001c-0.539-0.011-1.006-0.006-1.394,0.009l-9.842,0.362
	c-0.869,0.032-1.797,0.085-2.783,0.162c-0.987,0.078-1.93,0.159-2.826,0.247c-0.07-0.269-0.109-0.483-0.115-0.646
	c-0.013-0.38,0.131-0.603,0.426-0.667c1.131-0.23,1.942-0.465,2.428-0.699c0.487-0.234,0.72-0.623,0.699-1.165l-0.759-20.668
	c-0.021-0.541-0.252-0.905-0.693-1.093c-0.44-0.187-1.294-0.365-2.562-0.535c-0.302-0.044-0.46-0.268-0.476-0.676
	c-0.006-0.134-0.002-0.249,0.012-0.345c0.012-0.095,0.027-0.198,0.056-0.308c1.291,0.034,2.37,0.05,3.242,0.044
	c0.869-0.006,1.649-0.019,2.337-0.045l8.854-0.325c1.349-0.049,2.513-0.133,3.501-0.252c0.984-0.115,1.643-0.181,1.973-0.192
	c0.388-0.015,0.658,0.198,0.809,0.642c0.153,0.441,0.284,0.971,0.396,1.588c0.114,0.621,0.243,1.281,0.39,1.981
	c0.145,0.698,0.391,1.286,0.74,1.76c-0.234,0.172-0.502,0.263-0.801,0.274c-0.392,0.014-0.648-0.1-0.777-0.338
	c-0.387-0.69-0.752-1.278-1.101-1.769c-0.347-0.487-0.746-0.887-1.192-1.196c-0.446-0.311-0.979-0.533-1.6-0.674
	c-0.62-0.138-1.378-0.192-2.276-0.159L133.462,70.483z"/>
<path fill="#231F20" stroke="#231F20" d="M174.218,82.143l0.264,7.853c0.019,0.587,0.378,0.991,1.073,1.211
	c0.696,0.219,1.736,0.381,3.118,0.488c0.374,0.04,0.571,0.251,0.584,0.634c0.007,0.179-0.021,0.397-0.072,0.653
	c-0.91-0.021-1.941-0.029-3.102-0.029c-1.158,0-2.408,0.021-3.755,0.068c-0.813,0.026-1.733,0.076-2.765,0.15
	c-1.029,0.072-1.997,0.148-2.904,0.23c-0.071-0.251-0.107-0.455-0.113-0.609c-0.011-0.357,0.137-0.565,0.446-0.628
	c1.247-0.246,2.076-0.475,2.49-0.678c0.418-0.206,0.616-0.564,0.598-1.075l-0.653-19.497c-0.018-0.509-0.271-0.872-0.764-1.085
	c-0.492-0.213-1.367-0.362-2.621-0.45c-0.313-0.04-0.479-0.265-0.493-0.674c-0.007-0.177,0.02-0.37,0.075-0.576
	c0.876,0.022,1.81,0.035,2.796,0.039c0.985,0.006,1.917-0.006,2.794-0.036l6.614-0.222c3.376-0.113,5.932,0.454,7.664,1.698
	c1.73,1.246,2.632,2.904,2.701,4.972c0.028,0.817-0.171,1.653-0.595,2.513c-0.426,0.856-1.06,1.641-1.896,2.346
	c-0.838,0.705-1.883,1.295-3.133,1.772c-1.252,0.477-2.677,0.742-4.27,0.794L174.218,82.143z M176.898,81.213
	c2.383-0.08,4.209-0.562,5.471-1.45c1.265-0.889,1.865-2.34,1.798-4.356c-0.029-0.845-0.175-1.63-0.438-2.357
	c-0.264-0.728-0.693-1.36-1.29-1.901c-0.6-0.536-1.378-0.954-2.341-1.25c-0.967-0.295-2.162-0.419-3.592-0.372l-2.707,0.093
	l0.391,11.687L176.898,81.213z"/>
<path fill="none" stroke="#231F20" d="M-5.25,28.369l-19.25-3.928c-3-1.5-1.5-4.5-1.5-4.5l-0.75-24.75
	c-1.5-3.25,1.5-6.491,1.5-6.491L6-39.059c0,0,159,22.25,163.671,23.232s4.996,5.873,4.996,5.873v31.093"/>
<polyline fill="none" stroke="#231F20" points="174.667,-8.559 6.25,-30.29 -26.75,-4.809 "/>
<polyline fill="none" stroke="#231F20" points="174.667,21.139 8,2.969 -26,19.941 "/>
<polyline fill="none" stroke="#231F20" points="-24.5,24.441 7.5,9.191 128.569,19.627 "/>
<line fill="none" stroke="#231F20" stroke-width="0.75" x1="6" y1="-39.059" x2="7.5" y2="9.191"/>
<path fill="none" stroke="#231F20" d="M-3.5,58.191l-0.5-27c-2.25-0.75-1.25-2.822-1.25-2.822l19.5-13.239l179.5,7.061
	c0,0,1.5,0.83,0,3.665l2.5,29.585c0,0,1.5,5,0,7.5l-182-3.49L-3.5,58.191z"/>
<polyline fill="none" stroke="#231F20" points="193.75,25.856 13.75,21.139 -4,31.191 "/>
<polyline fill="none" stroke="#231F20" points="-3.5,58.191 14,53.823 196.25,55.441 "/>
<line fill="none" stroke="#231F20" stroke-width="0.75" x1="13.128" y1="15.892" x2="14.25" y2="59.45"/>
<path fill="none" stroke="#231F20" stroke-linejoin="bevel" d="M198.5,62.941L8.51,59.043H-9c0,0-3,1.897-1.25,5.147l-0.548,26.5
	c0,0-2.452,4.484,1.048,7.867S8.5,114.441,8.5,114.441l192-12.933c0,0,0.75-6.146,0-8.106L198.5,62.941z"/>
<polyline fill="none" stroke="#231F20" points="198.25,66.691 8.75,65.43 -10.25,64.191 "/>
<polyline fill="none" stroke="#231F20" points="-10.798,90.691 8.25,105.191 200.5,93.402 "/>
<line fill="none" stroke="#231F20" stroke-width="0.75" x1="8.51" y1="59.043" x2="8.5" y2="114.441"/>
</svg>
